<?xml version="1.0" standalone="no"?>
<!DOCTYPE svg PUBLIC "-//W3C//DTD SVG 20010904//EN"
 "http://www.w3.org/TR/2001/REC-SVG-20010904/DTD/svg10.dtd">
<svg version="1.0" xmlns="http://www.w3.org/2000/svg"
 width="1042.000000pt" height="417.000000pt" viewBox="0 0 1042.000000 417.000000"
 preserveAspectRatio="xMidYMid meet">

<g transform="translate(0.000000,417.000000) scale(0.100000,-0.100000)"
fill="#000000" stroke="none">
<path d="M110 4065 c0 0 0 -3765 0 -3868 l0 -87 4950 0 c3241 0 4950 4 4950
10 0 6 -9 10 -21 10 -17 0 -20 5 -17 33 3 28 6 32 28 29 26 -4 50 -19 48 -30
0 -4 0 -17 1 -29 1 -23 3 -23 131 -23 l130 0 0 1975 c0 1573 -3 1975 -12 1975
-9 0 -10177 5 -10188 5z m1237 -706 c55 -14 69 -29 54 -58 -6 -10 -6 -23 -1
-31 8 -13 15 -13 52 1 24 9 53 13 65 10 12 -3 84 -60 159 -126 215 -189 300
-252 379 -282 39 -14 105 -44 147 -66 63 -32 85 -39 116 -35 51 7 67 -3 92
-59 24 -54 25 -63 5 -63 -24 0 -33 -31 -27 -92 l5 -59 -45 -42 c-51 -48 -68
-75 -68 -111 0 -40 10 -56 47 -71 28 -12 40 -27 65 -82 17 -37 46 -86 66 -107
l35 -39 -7 -96 c-6 -89 -17 -124 -32 -108 -4 3 -7 46 -8 94 -1 77 -4 94 -29
135 -18 32 -43 56 -75 74 -95 54 -182 114 -197 138 -9 14 -21 58 -27 98 -17
126 -45 159 -98 115 -29 -25 -39 -27 -119 -27 -101 0 -163 18 -209 60 -37 33
-41 66 -17 144 19 61 19 103 1 158 -7 24 -19 90 -25 148 -12 103 -23 140 -41
140 -5 0 -12 -25 -15 -55 -6 -44 -2 -68 19 -130 37 -106 32 -221 -11 -256 -15
-13 -16 -9 -10 51 l7 65 -29 -31 c-16 -18 -38 -61 -51 -98 -35 -105 -62 -108
-166 -20 -82 69 -102 70 -163 5 -25 -26 -59 -68 -76 -91 -32 -46 -81 -88 -91
-78 -8 9 26 82 72 154 21 34 47 76 56 93 27 48 54 54 156 31 152 -35 136 -35
116 -1 -17 29 -17 30 10 61 37 45 30 55 -38 53 l-56 -2 0 32 c0 31 8 63 49
201 36 122 1 98 -57 -39 -35 -81 -41 -90 -64 -88 -22 1 -27 -5 -42 -53 -9 -30
-23 -54 -30 -54 -10 0 -10 19 -1 95 8 72 8 95 -1 95 -20 0 -33 -24 -44 -81
-17 -83 -27 -104 -45 -89 -21 18 -18 49 10 95 31 49 31 57 3 172 -26 110 -19
143 32 143 24 0 35 8 56 41 28 45 33 46 141 18z m-506 -79 c25 -14 27 -63 2
-57 -10 3 -42 11 -71 17 -57 13 -58 18 -9 37 41 15 54 15 78 3z m109 -126 c56
-29 72 -42 94 -76 17 -27 17 -29 -4 -72 -11 -24 -45 -65 -74 -89 l-52 -45 -52
50 c-29 27 -52 54 -52 59 0 11 37 49 48 49 12 0 53 88 43 94 -4 3 -23 1 -42
-4 -19 -6 -35 -10 -36 -10 -2 0 -3 13 -3 28 0 58 40 63 130 16z m3106 -59 c9
-14 95 -224 190 -467 95 -243 184 -456 197 -474 13 -18 52 -55 88 -82 90 -69
95 -76 65 -96 -22 -14 -65 -16 -325 -16 -270 0 -301 2 -321 18 -21 17 -21 18
-3 36 10 10 41 30 68 44 63 34 67 56 30 161 -38 110 -41 111 -202 111 -74 0
-143 -5 -154 -10 -47 -25 -64 -121 -33 -186 20 -43 68 -84 98 -84 12 0 35 -13
50 -29 l27 -28 -25 -17 c-22 -14 -60 -16 -279 -16 -235 0 -255 1 -271 19 -24
26 -11 46 50 76 30 15 68 44 88 68 39 48 143 253 275 544 75 164 91 209 86
232 -8 39 6 64 52 92 21 12 66 46 101 76 75 63 120 71 148 28z m1595 -42 c12
-13 13 -96 11 -467 -2 -300 0 -461 7 -479 6 -15 25 -36 42 -45 18 -9 46 -29
63 -43 l30 -26 -32 -17 c-26 -13 -69 -16 -273 -16 -236 0 -243 1 -266 22 l-24
22 -82 -18 c-45 -9 -113 -24 -152 -32 -91 -20 -186 -15 -222 12 -58 42 -63 67
-63 311 0 243 -2 253 -60 253 -15 0 -37 8 -49 18 -18 15 -19 20 -8 42 12 24
227 215 297 265 20 13 50 27 67 31 30 6 32 4 42 -32 6 -22 11 -71 11 -111 0
-46 4 -75 13 -80 6 -4 59 -10 116 -13 l105 -5 7 -29 c5 -19 4 -39 -4 -55 -12
-25 -16 -26 -112 -29 -54 -1 -105 -8 -112 -14 -18 -14 -18 -312 0 -347 21 -42
60 -62 138 -72 56 -7 77 -14 88 -29 20 -29 55 -25 94 13 l34 32 -2 325 c-1
363 -1 361 -72 410 -46 32 -62 65 -41 87 22 21 325 132 364 132 18 1 38 -6 45
-16z m3107 -20 c123 -91 79 -266 -73 -288 -79 -12 -174 50 -190 126 -15 68 24
146 90 175 43 20 138 13 173 -13z m-634 -190 c3 -21 6 -68 6 -105 0 -84 6 -88
127 -88 48 0 94 -4 101 -8 7 -5 15 -24 18 -44 10 -57 -10 -68 -125 -68 -62 0
-101 -4 -109 -12 -8 -8 -12 -60 -12 -168 0 -210 14 -234 148 -250 76 -10 101
-28 85 -63 -8 -18 -34 -30 -119 -57 -94 -30 -123 -35 -209 -35 -88 0 -105 3
-138 23 -68 43 -72 58 -75 319 l-3 233 -27 6 c-24 5 -82 24 -90 29 -2 2 4 18
13 36 17 34 274 257 337 291 41 22 63 10 72 -39z m-7074 -88 c0 -11 -11 -15
-40 -15 -29 0 -40 4 -40 15 0 11 11 15 40 15 29 0 40 -4 40 -15z m1510 0 c31
-16 66 -64 39 -52 -91 37 -118 51 -113 58 8 14 42 11 74 -6z m-1639 -93 c-16
-29 -60 -62 -84 -62 -18 0 -13 8 28 50 48 49 79 55 56 12z m6121 21 c10 -9 18
-21 18 -27 1 -36 17 -37 106 -5 146 52 260 44 343 -27 56 -47 60 -63 61 -272
2 -219 8 -258 47 -290 72 -58 78 -72 38 -90 -33 -15 -408 -16 -436 -2 -29 16
-23 43 16 77 l35 31 0 171 c0 195 -7 225 -63 259 -37 24 -77 28 -108 12 -18
-10 -19 -23 -19 -217 l0 -205 35 -48 c40 -55 41 -58 18 -76 -14 -10 -70 -13
-231 -14 -179 0 -217 3 -237 16 -28 19 -54 16 -169 -15 -94 -25 -168 -27 -186
-6 -7 8 -29 20 -49 26 -31 9 -46 7 -105 -15 -78 -30 -164 -34 -218 -11 -97 40
-151 185 -94 252 24 28 60 44 292 133 92 35 103 49 94 124 -7 55 -43 96 -84
96 -25 0 -39 -24 -51 -88 -9 -43 -33 -54 -135 -60 -95 -5 -124 7 -113 49 6 23
160 128 275 188 62 31 75 34 149 34 67 -1 90 -6 137 -30 49 -24 61 -36 85 -85
28 -55 29 -64 34 -235 6 -207 9 -217 90 -257 65 -32 103 -33 129 -5 16 18 20
40 22 141 5 160 0 178 -59 244 -53 59 -61 91 -28 112 15 10 219 92 309 125 25
9 33 8 52 -10z m1759 -2 l24 -19 -3 -268 c-2 -180 0 -276 8 -294 6 -15 28 -36
49 -48 20 -12 45 -30 55 -41 17 -19 17 -20 -13 -35 -25 -13 -70 -16 -256 -16
-204 0 -248 4 -273 25 -9 8 33 55 59 65 49 21 59 53 59 200 0 152 -7 173 -74
219 -24 17 -46 36 -48 43 -9 23 10 55 39 66 15 6 93 35 173 66 80 30 152 56
161 56 9 0 27 -9 40 -19z m697 -20 c40 -11 79 -25 87 -31 21 -17 20 -141 0
-181 -16 -29 -16 -29 -52 -14 -20 9 -38 17 -39 18 -1 1 -18 28 -38 59 -41 65
-69 88 -106 88 -42 0 -64 -23 -64 -65 0 -47 33 -79 159 -154 143 -85 176 -124
177 -210 0 -97 -68 -176 -181 -211 -112 -35 -260 -22 -371 33 -54 26 -69 60
-69 160 -1 54 3 71 19 87 40 40 66 22 123 -84 46 -86 73 -112 128 -121 78 -14
125 80 66 131 -15 12 -72 48 -128 79 -118 67 -160 102 -184 152 -24 49 -15
132 19 183 28 42 102 84 176 100 61 13 190 4 278 -19z m-8501 -54 c0 -8 -6
-14 -14 -14 -9 0 -10 4 -2 14 6 7 12 13 14 13 1 0 2 -6 2 -13z m1047 -533 c15
-40 -140 -234 -189 -234 -3 0 -5 11 -5 25 0 34 153 225 180 225 4 0 11 -7 14
-16z m4294 -345 c2 -14 -2 -38 -8 -55 l-12 -29 -22 28 c-38 47 -46 36 -46 -67
0 -69 4 -95 13 -99 26 -10 42 13 87 120 40 95 49 108 70 108 21 0 30 -13 70
-107 25 -59 54 -114 64 -121 31 -23 11 -34 -59 -34 -71 0 -82 6 -63 36 25 40
-32 69 -67 34 -16 -15 -16 -18 5 -33 42 -31 16 -40 -111 -39 -117 1 -136 6
-110 34 12 13 21 195 10 195 -5 0 -17 -9 -26 -20 -22 -25 -56 -27 -49 -2 3 9
8 28 11 42 6 26 6 26 101 22 63 -3 99 -1 107 7 17 17 32 8 35 -20z m1542 -18
c0 -53 -23 -71 -45 -37 -33 50 -43 33 -41 -64 1 -75 5 -92 20 -103 32 -24 9
-37 -65 -37 -55 0 -69 3 -69 15 0 9 7 18 15 21 12 5 15 26 15 100 0 52 -4 94
-8 94 -5 0 -17 -9 -27 -20 -10 -11 -24 -20 -32 -20 -7 0 -13 9 -13 20 0 11 -7
20 -15 20 -12 0 -15 -22 -17 -117 -2 -96 -6 -118 -18 -121 -9 -1 -45 34 -89
88 -40 49 -75 90 -77 90 -2 0 -4 -29 -4 -64 0 -56 2 -64 21 -69 12 -3 19 -12
17 -19 -3 -9 -34 -14 -116 -15 -112 -2 -135 4 -112 32 8 10 8 19 0 34 -13 25
-52 28 -71 5 -11 -14 -10 -18 10 -34 37 -27 18 -40 -63 -40 l-74 0 -27 55
c-16 30 -31 55 -35 55 -14 0 -3 -61 14 -79 23 -25 11 -31 -66 -31 -54 0 -68 3
-68 15 0 9 7 18 15 21 12 5 15 26 15 99 0 73 -3 94 -15 99 -19 7 -45 -3 -46
-18 0 -6 -2 -42 -3 -81 -3 -88 -10 -108 -42 -125 -31 -17 -122 -17 -152 -1
-32 17 -42 50 -42 138 0 59 -4 78 -17 88 -28 21 -5 34 62 33 72 0 89 -12 55
-38 -20 -15 -22 -22 -17 -95 6 -88 21 -111 67 -100 40 10 44 21 44 105 0 66
-3 82 -18 93 -38 28 -8 36 143 36 135 1 151 -1 175 -20 34 -26 35 -70 3 -96
l-24 -18 26 -42 27 -43 44 108 c40 95 48 107 70 107 21 0 29 -13 70 -110 37
-87 51 -111 68 -113 21 -3 22 0 22 89 0 74 -3 94 -17 104 -28 20 -6 35 49 31
36 -2 56 -8 67 -22 9 -11 33 -40 53 -65 l38 -44 0 46 c0 39 -3 48 -21 52 -12
3 -19 12 -17 19 6 17 108 22 108 5 0 -7 4 -6 10 3 7 12 28 14 102 12 51 -1
100 2 108 7 21 15 30 4 30 -38z m-2934 -87 c46 -108 64 -131 70 -90 5 37 21
38 42 2 24 -41 64 -49 81 -17 12 21 6 28 -47 55 -48 25 -72 52 -72 84 1 50 43
82 109 82 59 0 71 -8 71 -45 0 -49 -27 -56 -43 -12 -9 24 -34 32 -52 17 -22
-19 -20 -23 39 -53 37 -20 58 -38 67 -59 24 -59 -22 -117 -96 -118 -224 -4
-264 2 -232 32 30 28 -6 63 -53 51 -22 -6 -28 -43 -6 -43 18 0 29 -29 13 -35
-6 -3 -183 -4 -392 -3 l-380 3 -30 55 -30 55 -3 -33 c-2 -23 2 -38 14 -46 35
-26 6 -35 -109 -33 l-112 2 -30 60 -30 60 -3 -38 c-2 -28 2 -42 14 -51 35 -26
5 -34 -126 -35 -128 0 -165 9 -128 33 26 16 2 56 -33 56 -38 0 -58 -34 -29
-50 11 -6 20 -17 20 -25 0 -11 -13 -15 -55 -15 -58 0 -67 10 -40 40 9 10 35
64 60 121 42 102 63 125 88 100 6 -6 30 -57 53 -113 33 -80 47 -104 63 -106
20 -3 21 1 21 89 0 76 -3 94 -17 105 -36 26 -1 36 107 32 93 -3 103 -5 121
-27 26 -31 24 -58 -5 -84 l-25 -22 26 -47 c17 -31 33 -48 45 -48 16 0 18 9 18
91 0 74 -3 94 -17 104 -32 24 -4 35 88 35 102 0 144 -15 151 -54 5 -26 -7 -54
-29 -71 -20 -15 30 -105 58 -105 17 0 19 8 19 91 0 74 -3 94 -17 104 -35 26
-3 34 142 34 137 0 145 -1 145 -19 0 -11 -7 -20 -15 -20 -12 0 -15 -17 -15
-95 0 -88 1 -95 20 -95 11 0 29 9 40 20 11 11 27 20 35 20 8 0 15 -9 15 -20 0
-11 5 -20 10 -20 6 0 10 37 10 91 0 76 -3 94 -17 105 -31 22 -2 35 72 32 46
-2 70 -7 73 -16 2 -7 -5 -16 -17 -19 -19 -5 -21 -12 -21 -99 0 -87 1 -94 20
-94 11 0 30 11 42 25 26 30 36 31 46 4 7 -17 17 -1 56 87 26 60 53 112 58 116
23 13 37 -7 84 -118z m1102 103 c16 -13 12 -69 -5 -75 -7 -2 -18 8 -24 22 -14
30 -37 40 -56 25 -20 -17 -14 -26 36 -51 25 -13 53 -35 64 -49 17 -24 18 -31
7 -64 -9 -28 -22 -41 -51 -54 -21 -10 -49 -17 -61 -15 -13 1 -31 3 -40 3 -40
2 -64 65 -34 90 11 9 18 4 35 -24 20 -35 34 -41 65 -29 30 12 18 43 -26 65
-62 31 -78 48 -78 83 0 42 24 74 63 84 37 10 86 5 105 -11z m2190 0 c13 -11
17 -67 4 -67 -5 0 -22 11 -38 25 -33 29 -35 29 -67 14 -76 -34 -54 -197 26
-199 10 0 31 14 47 31 30 33 50 32 50 -4 0 -32 -10 -43 -53 -57 -119 -38 -234
57 -204 170 16 61 50 88 126 99 51 7 90 3 109 -12z m692 -2 c91 -47 95 -182 7
-235 -107 -65 -247 -1 -247 113 0 40 19 85 44 106 48 40 136 47 196 16z
m-5546 -16 c13 -15 22 -37 20 -50 -1 -13 -3 -30 -3 -37 -2 -22 -63 -53 -93
-46 -26 5 -28 4 -28 -30 0 -22 6 -38 16 -44 31 -17 5 -30 -61 -30 -68 0 -90
12 -62 33 14 10 17 30 17 100 0 70 -3 90 -17 100 -9 7 -13 17 -8 24 5 9 34 12
102 9 88 -3 96 -5 117 -29z m2181 21 c48 -18 52 -83 7 -116 -12 -8 -9 -18 14
-57 17 -27 36 -47 46 -47 16 0 18 11 18 91 0 74 -3 94 -17 104 -31 23 -5 30
104 30 l108 0 3 -33 c2 -22 -2 -34 -12 -38 -12 -4 -16 -20 -16 -55 0 -51 -15
-64 -40 -34 -23 28 -40 18 -40 -25 0 -37 2 -40 28 -40 18 0 37 9 50 25 25 29
42 25 42 -9 0 -50 -13 -54 -175 -53 l-150 2 -32 60 -32 60 -1 -39 c0 -25 6
-43 17 -51 28 -21 6 -32 -62 -32 -68 0 -90 11 -62 32 14 10 17 30 17 100 0 70
-3 90 -17 100 -32 24 -4 35 87 35 49 0 100 -4 115 -10z m2933 -10 c36 -34 21
-110 -20 -110 -6 0 -4 -8 4 -17 9 -10 23 -33 32 -50 9 -18 23 -33 31 -33 23 0
22 178 -2 195 -30 22 -5 34 65 32 54 -3 68 -6 70 -20 2 -10 -3 -17 -13 -17
-13 0 -15 -14 -14 -95 1 -74 4 -95 15 -95 8 0 14 -9 14 -20 0 -19 -7 -20 -115
-20 l-115 0 -27 55 c-15 30 -31 55 -35 55 -17 0 -7 -56 12 -73 32 -27 15 -37
-61 -37 -61 0 -69 2 -69 19 0 10 7 21 15 25 20 7 18 183 -2 190 -7 3 -13 12
-13 21 0 12 17 15 103 15 90 0 106 -3 125 -20z m658 8 c4 -6 0 -16 -9 -23 -14
-10 -17 -30 -17 -104 0 -81 2 -91 18 -91 10 0 29 11 42 25 31 33 40 32 40 -5
0 -20 4 -28 13 -24 20 7 21 194 1 194 -8 0 -14 9 -14 20 0 18 7 20 69 20 72 0
98 -13 68 -35 -14 -10 -17 -30 -17 -104 0 -81 2 -91 18 -91 10 0 28 12 41 26
29 34 51 19 42 -29 l-7 -32 -217 -2 c-211 -3 -217 -2 -217 17 0 11 7 20 15 20
12 0 15 17 15 95 0 78 -3 95 -15 95 -8 0 -15 9 -15 20 0 18 7 20 69 20 42 0
73 -5 77 -12z m541 -9 c87 -54 83 -179 -8 -233 -41 -24 -122 -25 -167 -2 -95
49 -95 192 -1 239 49 24 134 22 176 -4z m392 -1190 c-11 -10 -20 -20 -20 -23
1 -3 1 -16 0 -28 -1 -22 -1 -22 -9 2 -7 21 -8 17 -9 -21 -1 -50 -14 -67 -52
-71 -21 -3 -24 1 -27 35 -2 20 -7 35 -12 32 -4 -3 -6 4 -3 15 3 11 1 20 -5 20
-6 0 -13 -8 -15 -17 -2 -10 -3 -6 -2 10 1 15 -2 27 -7 27 -4 0 -8 -5 -8 -12 0
-6 -3 -8 -7 -4 -5 4 1 14 11 22 15 10 16 14 5 15 -35 3 53 15 113 15 66 1 67
0 47 -17z m-1479 -159 c0 -5 -5 -10 -11 -10 -5 0 -7 5 -4 10 3 6 8 10 11 10 2
0 4 -4 4 -10z m10 -51 c0 -5 -4 -7 -10 -4 -6 3 -10 -5 -10 -19 0 -13 6 -26 13
-29 6 -2 9 -7 6 -11 -3 -3 -14 -4 -23 0 -19 7 -22 60 -3 67 20 9 27 8 27 -4z
m-53 -41 c-3 -7 -5 -2 -5 12 0 14 2 19 5 13 2 -7 2 -19 0 -25z m43 -68 c0 -5
-2 -10 -4 -10 -3 0 -8 5 -11 10 -3 6 -1 10 4 10 6 0 11 -4 11 -10z"/>
<path d="M2071 2783 c-46 -47 -64 -179 -31 -233 11 -18 9 -23 64 97 40 86 46
107 39 130 -13 38 -38 40 -72 6z"/>
<path d="M1811 2686 l-30 -44 36 -5 c20 -4 39 -5 41 -3 2 2 5 25 8 50 7 61
-14 62 -55 2z"/>
<path d="M918 3059 c-8 -35 -13 -66 -12 -68 2 -2 18 5 36 16 41 24 46 53 15
89 l-24 28 -15 -65z"/>
<path d="M3797 2678 c-65 -185 -65 -188 38 -188 96 0 102 9 68 104 -38 105
-61 156 -71 156 -5 0 -21 -33 -35 -72z"/>
<path d="M6176 2254 c-60 -41 -71 -84 -36 -142 22 -36 65 -61 80 -46 5 5 11
53 14 106 5 111 -1 120 -58 82z"/>
<path d="M6301 1721 c-10 -6 -10 -10 -1 -16 13 -8 24 -1 19 14 -3 6 -10 7 -18
2z"/>
<path d="M6185 1610 c0 -106 1 -110 22 -110 21 0 22 4 25 110 l3 110 -25 0
-25 0 0 -110z"/>
<path d="M6404 1696 c-3 -14 1 -37 10 -54 9 -17 17 -39 19 -49 2 -10 11 -33
20 -51 10 -18 16 -36 13 -40 -3 -5 8 -7 23 -4 l29 4 -40 96 c-22 54 -42 103
-45 110 -8 19 -22 14 -29 -12z"/>
<path d="M6386 1614 c-8 -20 0 -32 14 -18 5 5 5 15 1 22 -6 11 -10 10 -15 -4z"/>
<path d="M6320 1500 c0 -5 5 -10 11 -10 5 0 7 5 4 10 -3 6 -8 10 -11 10 -2 0
-4 -4 -4 -10z"/>
<path d="M6890 1610 c0 -107 1 -110 23 -110 21 0 22 3 22 110 0 107 -1 110
-22 110 -22 0 -23 -3 -23 -110z"/>
<path d="M7010 1700 c7 -12 10 -35 8 -51 -5 -33 -1 -35 30 -13 38 26 26 63
-26 79 -22 6 -23 5 -12 -15z"/>
<path d="M7193 1698 c-8 -18 -6 -30 8 -53 11 -16 19 -36 19 -44 0 -8 9 -34 21
-58 16 -33 26 -43 45 -43 l23 0 -35 83 c-20 45 -41 94 -46 110 -12 33 -22 34
-35 5z"/>
<path d="M7413 1712 c-24 -4 -33 -32 -10 -32 10 0 89 -91 164 -189 10 -13 12
-7 13 37 0 29 -4 51 -9 48 -5 -3 -33 22 -62 57 -71 84 -71 84 -96 79z"/>
<path d="M7656 1704 c-5 -14 -4 -15 9 -4 17 14 19 20 6 20 -5 0 -12 -7 -15
-16z"/>
<path d="M7730 1610 c0 -107 1 -110 23 -110 21 0 22 3 22 110 0 107 -1 110
-22 110 -22 0 -23 -3 -23 -110z"/>
<path d="M7830 1716 c0 -2 7 -9 15 -16 12 -10 15 -10 15 4 0 9 -7 16 -15 16
-8 0 -15 -2 -15 -4z"/>
<path d="M6590 1620 c0 -77 3 -93 20 -110 11 -11 26 -20 34 -20 12 0 12 4 -1
30 -10 21 -14 54 -11 110 3 77 2 80 -19 80 -22 0 -23 -3 -23 -90z"/>
<path d="M6950 1665 c0 -35 5 -40 34 -29 34 13 14 64 -25 64 -5 0 -9 -16 -9
-35z"/>
<path d="M7177 1616 c-3 -8 -2 -18 3 -21 13 -8 20 9 11 24 -6 10 -10 9 -14 -3z"/>
<path d="M7005 1551 c13 -27 30 -53 36 -56 16 -11 32 10 25 33 -9 28 -52 72
-71 72 -13 0 -11 -9 10 -49z"/>
<path d="M7110 1500 c0 -5 5 -10 11 -10 5 0 7 5 4 10 -3 6 -8 10 -11 10 -2 0
-4 -4 -4 -10z"/>
<path d="M3466 1695 c-4 -16 1 -39 14 -65 11 -23 18 -45 15 -50 -3 -6 -2 -10
3 -10 12 0 36 -56 28 -68 -2 -4 8 -6 25 -4 16 2 29 5 29 6 0 13 -91 211 -98
214 -5 1 -12 -9 -16 -23z"/>
<path d="M3660 1606 l0 -113 25 5 c25 4 25 5 25 113 l0 109 -25 0 -25 0 0
-114z"/>
<path d="M3787 1691 c15 -25 16 -34 5 -51 -7 -11 -8 -20 -3 -20 11 0 61 40 61
49 0 17 -27 40 -53 47 l-27 6 17 -31z"/>
<path d="M3930 1611 c0 -108 0 -109 25 -113 l25 -5 0 113 0 114 -25 0 -25 0 0
-109z"/>
<path d="M4056 1690 c12 -22 12 -34 4 -50 -13 -24 -3 -26 28 -4 31 21 29 62
-4 74 -39 15 -44 12 -28 -20z"/>
<path d="M4861 1702 c-8 -15 -3 -37 24 -103 19 -46 35 -88 35 -95 0 -7 10 -9
25 -6 14 2 25 7 25 9 0 10 -82 198 -90 207 -4 4 -13 -1 -19 -12z"/>
<path d="M5166 1707 c3 -10 9 -15 12 -12 3 3 0 11 -7 18 -10 9 -11 8 -5 -6z"/>
<path d="M4200 1605 l0 -105 25 0 25 0 0 105 0 105 -25 0 -25 0 0 -105z"/>
<path d="M4283 1703 c-20 -8 -18 -189 2 -197 37 -14 45 3 45 99 0 75 -3 94
-16 99 -9 3 -16 6 -17 5 -1 0 -8 -3 -14 -6z"/>
<path d="M4350 1605 l0 -105 25 0 25 0 0 105 0 105 -25 0 -25 0 0 -105z"/>
<path d="M4570 1605 l0 -105 25 0 25 0 0 105 0 105 -25 0 -25 0 0 -105z"/>
<path d="M5054 1685 c-22 -34 -11 -58 45 -88 60 -33 75 -51 68 -79 l-6 -23 20
24 c10 13 19 31 19 41 0 21 -44 61 -88 79 -31 13 -49 42 -37 61 13 22 -6 8
-21 -15z"/>
<path d="M3730 1665 c0 -37 18 -47 39 -21 9 11 10 20 1 35 -18 34 -40 26 -40
-14z"/>
<path d="M4000 1665 c0 -24 5 -35 15 -35 21 0 35 32 24 53 -17 30 -39 20 -39
-18z"/>
<path d="M3447 1616 c-3 -8 -2 -18 4 -22 16 -9 22 2 11 21 -8 15 -10 16 -15 1z"/>
<path d="M4840 1611 c0 -12 5 -21 10 -21 6 0 10 6 10 14 0 8 -4 18 -10 21 -5
3 -10 -3 -10 -14z"/>
<path d="M3781 1549 c24 -49 34 -59 55 -59 l26 0 -23 38 c-31 52 -47 69 -69
75 -17 4 -16 -2 11 -54z"/>
<path d="M4052 1545 c23 -43 35 -55 53 -55 l24 0 -21 38 c-30 53 -49 72 -69
72 -15 0 -13 -7 13 -55z"/>
<path d="M4776 1505 c-3 -8 -1 -15 4 -15 6 0 10 7 10 15 0 8 -2 15 -4 15 -2 0
-6 -7 -10 -15z"/>
<path d="M3380 1500 c0 -5 5 -10 10 -10 6 0 10 5 10 10 0 6 -4 10 -10 10 -5 0
-10 -4 -10 -10z"/>
<path d="M4485 1500 c-3 -5 -1 -10 4 -10 6 0 11 5 11 10 0 6 -2 10 -4 10 -3 0
-8 -4 -11 -10z"/>
<path d="M4705 1500 c-3 -5 -1 -10 4 -10 6 0 11 5 11 10 0 6 -2 10 -4 10 -3 0
-8 -4 -11 -10z"/>
<path d="M5905 1680 c-11 -35 5 -60 55 -85 51 -26 76 -57 64 -78 -5 -8 -2 -7
9 2 22 18 22 64 0 83 -10 9 -36 24 -58 35 -27 12 -41 26 -43 41 -4 27 -19 29
-27 2z"/>
<path d="M8079 1705 c-62 -34 -79 -120 -34 -173 14 -16 34 -32 46 -35 20 -5
20 -5 3 14 -28 31 -32 130 -6 174 12 19 20 35 19 35 -1 -1 -14 -7 -28 -15z"/>
<path d="M8760 1697 c-68 -52 -64 -147 8 -189 l30 -18 -19 37 c-21 41 -25 123
-8 155 13 24 9 30 -11 15z"/>
<path d="M8803 1684 c-23 -23 -25 -31 -21 -81 4 -46 10 -61 32 -80 34 -29 41
-29 73 3 23 23 25 31 21 81 -4 46 -10 61 -32 80 -34 29 -41 29 -73 -3z"/>
<path d="M8916 1673 c16 -37 15 -121 -1 -157 -8 -18 -7 -18 17 -2 62 40 64
128 4 178 -32 26 -37 22 -20 -19z"/>
<path d="M3210 1610 l0 -110 25 0 25 0 -2 110 c-3 107 -4 110 -25 110 -22 0
-23 -3 -23 -110z"/>
<path d="M3320 1710 c0 -5 5 -12 10 -15 6 -3 10 -21 10 -40 0 -19 -4 -37 -10
-40 -17 -10 -11 -25 8 -18 26 9 42 33 42 64 0 14 -6 31 -12 36 -20 16 -48 23
-48 13z"/>
<path d="M3277 1687 c-8 -22 4 -67 19 -67 19 0 29 47 14 65 -15 18 -26 19 -33
2z"/>
<path d="M5400 1606 l0 -113 25 5 c25 4 25 5 25 113 l0 109 -25 0 -25 0 0
-114z"/>
<path d="M5526 1690 c12 -22 12 -34 4 -50 -12 -23 -10 -24 25 -8 35 16 35 65
-1 78 -39 15 -44 12 -28 -20z"/>
<path d="M5810 1705 c7 -9 15 -13 17 -11 7 7 -7 26 -19 26 -6 0 -6 -6 2 -15z"/>
<path d="M5670 1605 c0 -104 0 -105 24 -105 22 0 24 4 28 58 1 31 2 78 0 105
-3 42 -5 47 -28 47 -24 0 -24 0 -24 -105z"/>
<path d="M5470 1665 c0 -29 3 -36 18 -33 11 2 17 13 17 33 0 20 -6 31 -17 33
-15 3 -18 -4 -18 -33z"/>
<path d="M5740 1665 c0 -40 13 -44 50 -14 24 20 24 21 5 35 -35 26 -55 18 -55
-21z"/>
<path d="M5780 1611 c0 -6 5 -13 10 -16 6 -3 10 1 10 9 0 9 -4 16 -10 16 -5 0
-10 -4 -10 -9z"/>
<path d="M5500 1595 c0 -3 11 -28 25 -55 20 -40 30 -50 51 -50 l26 0 -23 38
c-31 51 -50 72 -66 72 -7 0 -13 -2 -13 -5z"/>
<path d="M5816 1505 c-16 -12 -17 -15 -4 -15 9 0 18 7 22 15 7 18 6 18 -18 0z"/>
<path d="M8314 1704 c3 -9 6 -58 6 -110 0 -86 2 -94 19 -94 17 0 20 8 23 53 2
28 1 78 0 110 -4 53 -5 57 -29 57 -19 0 -24 -4 -19 -16z"/>
<path d="M8434 1702 c13 -15 17 -30 13 -51 -5 -25 -4 -29 11 -24 28 10 42 24
42 43 0 22 -17 36 -55 46 -30 7 -30 7 -11 -14z"/>
<path d="M8585 1605 c0 -102 1 -105 23 -105 21 0 22 3 22 105 0 102 -1 105
-22 105 -22 0 -23 -3 -23 -105z"/>
<path d="M8389 1685 c-1 -8 -2 -23 -3 -32 -1 -23 23 -23 37 -1 8 12 7 21 -2
32 -17 20 -31 20 -32 1z"/>
<path d="M8434 1551 c21 -38 39 -57 54 -59 28 -4 27 2 -7 57 -16 28 -37 47
-53 52 l-25 7 31 -57z"/>
<path d="M9060 1605 c0 -102 1 -105 23 -105 21 0 22 3 22 105 0 102 -1 105
-22 105 -22 0 -23 -3 -23 -105z"/>
<path d="M9280 1605 c0 -102 1 -105 23 -105 21 0 22 3 22 105 0 102 -1 105
-22 105 -22 0 -23 -3 -23 -105z"/>
<path d="M9190 1505 c-10 -12 -10 -15 4 -15 9 0 16 7 16 15 0 8 -2 15 -4 15
-2 0 -9 -7 -16 -15z"/>
<path d="M9410 1505 c-10 -12 -10 -15 4 -15 9 0 16 7 16 15 0 8 -2 15 -4 15
-2 0 -9 -7 -16 -15z"/>
<path d="M9514 1691 c-58 -47 -59 -126 0 -173 31 -26 37 -22 20 17 -17 41 -19
118 -3 147 14 27 8 30 -17 9z"/>
<path d="M9561 1684 c-24 -31 -28 -95 -8 -134 7 -13 25 -31 40 -40 27 -14 29
-14 53 13 18 21 24 40 24 73 0 97 -62 147 -109 88z"/>
<path d="M9676 1679 c16 -33 16 -125 -1 -163 -8 -19 -8 -19 18 0 61 45 63 128
3 176 -32 26 -38 22 -20 -13z"/>
<path d="M9989 518 c-14 -10 -14 -14 -1 -41 14 -28 16 -29 23 -11 4 10 8 15 9
9 0 -5 5 -3 10 7 12 19 3 48 -14 47 -6 0 -18 -5 -27 -11z"/>
</g>
</svg>
